PathFileType	4	(X/Y/Z)	 s11c0402.trc
DataRate	CameraRate	NumFrames	NumMarkers	Units	OrigDataRate	OrigDataStartFrame	OrigNumFrames
200	200	5	48	mm	200	751	2000
Frame#	Time	racr			lacr			c7			jug			rlel			rdr			llel			ldr			s2			lic			ric			lasi			rasi			rpsi			lpsi			rgt			lgt			rth1			rth2			rth3			rth4			rlfc			rmfc			rsh1			rsh2			rsh3			rsh4			rlmal			rcal			rtoe			rmt5			lth1			lth2			lth4			lth3			llfc			lmfc			llmal			lcal			lmt5			lsh1			lsh2			lsh3			lsh4			ltoe			SBIKE			LBIKE			RBIKE			
		X1	Y1	Z1	X2	Y2	Z2	X3	Y3	Z3	X4	Y4	Z4	X5	Y5	Z5	X6	Y6	Z6	X7	Y7	Z7	X8	Y8	Z8	X9	Y9	Z9	X10	Y10	Z10	X11	Y11	Z11	X12	Y12	Z12	X13	Y13	Z13	X14	Y14	Z14	X15	Y15	Z15	X16	Y16	Z16	X17	Y17	Z17	X18	Y18	Z18	X19	Y19	Z19	X20	Y20	Z20	X21	Y21	Z21	X22	Y22	Z22	X23	Y23	Z23	X24	Y24	Z24	X25	Y25	Z25	X26	Y26	Z26	X27	Y27	Z27	X28	Y28	Z28	X29	Y29	Z29	X30	Y30	Z30	X31	Y31	Z31	X32	Y32	Z32	X33	Y33	Z33	X34	Y34	Z34	X35	Y35	Z35	X36	Y36	Z36	X37	Y37	Z37	X38	Y38	Z38	X39	Y39	Z39	X40	Y40	Z40	X41	Y41	Z41	X42	Y42	Z42	X43	Y43	Z43	X44	Y44	Z44	X45	Y45	Z45	X46	Y46	Z46	X47	Y47	Z47	X48	Y48	Z48	
751	3.7550	798.714074	1316.797324	-14.590037	818.146044	1324.856876	-358.065561	793.055664	1414.050490	-186.106159	751.069153	1230.746624	-189.916895	597.762708	1122.537110	95.501583	763.263055	961.858762	-28.946879	596.257354	1177.673310	-552.163381	776.892121	952.041330	-460.794575	174.270960	1293.269780	-256.697127	402.428318	1247.922378	-441.729360	379.634003	1277.727619	-40.777575	414.538723	1176.323008	-403.145814	390.088118	1215.668648	-86.351838	231.413274	1361.789230	-210.219242	234.686132	1345.620836	-299.831979	327.829053	1159.090441	-20.905804	268.260531	1131.113697	-443.981016	443.065286	1071.966831	-17.525755	524.795753	1039.409291	-24.457640	578.746100	969.806174	-33.696576	544.432628	1067.271276	-39.503569	656.646987	897.526746	-48.728149	657.814109	877.343744	-181.692670	537.622016	794.995689	-43.096365	482.271750	729.677703	-65.640687	401.734171	697.597613	-70.900070	501.551741	711.420187	-94.247131	283.626880	627.474030	-87.658938	229.315124	666.292994	-137.495954	387.841161	425.770951	-135.193225	321.098808	461.944163	-65.907619	301.297507	994.754177	-451.985439	331.438106	916.001695	-439.113550	367.130487	919.361547	-430.743828	316.542645	827.429181	-431.259133	326.209276	685.860557	-403.147160	319.787062	676.954005	-272.828187	168.551783	283.982232	-403.964199	104.205471	274.320246	-375.446099	269.069289	145.678895	-442.578407	274.959601	570.777102	-429.728800	269.199779	485.699578	-417.895776	222.299797	411.052051	-418.855704	298.616299	478.393111	-394.489784	364.462834	126.097007	-372.413035	-204.329873	954.584501	-262.926681	1.352592	82.435123	-460.972191	-15.181302	81.165580	-62.590897	
752	3.7600	797.967102	1316.667971	-12.129064	818.862142	1325.818426	-355.623983	792.911095	1413.768640	-183.765737	751.489776	1230.354133	-187.674741	596.980754	1121.872102	96.075144	763.601924	962.540050	-28.672138	598.184010	1178.498160	-550.998609	777.994677	952.145570	-459.741610	175.244672	1294.905385	-259.006462	404.247288	1247.721817	-440.613082	377.780430	1279.717073	-40.436717	415.374206	1176.554152	-402.001700	389.080609	1217.667719	-86.118375	231.706463	1363.189370	-212.204905	235.478016	1347.117991	-301.024210	327.651175	1162.406346	-21.078673	268.831842	1131.685826	-443.856871	443.655421	1075.262310	-17.605295	524.897315	1043.697772	-24.031788	580.427171	974.801814	-33.708583	545.681414	1071.845794	-40.185685	659.752410	903.676507	-49.071143	661.429479	883.511505	-182.870316	543.164039	799.459256	-43.262669	489.023799	732.851551	-65.606051	409.145454	699.211896	-70.595991	508.496150	715.005058	-94.415498	290.479372	626.415332	-87.254756	234.647486	663.673253	-136.969482	399.146710	427.578518	-134.570099	331.986449	462.002443	-65.563725	301.376637	996.532692	-452.378031	330.678241	917.244745	-439.140979	366.315707	920.335880	-430.411838	314.964797	828.774452	-431.336890	322.928271	686.946949	-404.193640	317.698809	677.513744	-273.942431	160.411854	287.042617	-404.433392	96.055514	278.431250	-375.733382	258.551021	146.864073	-443.001040	270.234929	572.415960	-430.738797	263.373475	487.530626	-418.921681	215.451470	413.426776	-419.562867	292.892122	479.748112	-395.680801	353.713914	125.815484	-372.834941	-204.377154	954.598209	-262.873711	1.332857	82.457970	-460.975189	-15.229563	81.160928	-62.474884	
753	3.7650	797.349442	1316.251198	-9.987660	819.516875	1326.380879	-353.251792	792.898395	1413.451827	-181.608237	751.773846	1229.993415	-185.836584	596.415144	1121.196323	96.366377	763.849349	963.200968	-28.068350	600.104686	1179.011235	-549.820795	779.155176	952.261533	-458.733807	175.020674	1296.292895	-260.063754	406.030563	1247.571149	-439.414168	376.188610	1281.612891	-40.024590	416.151863	1176.789396	-400.964890	388.150350	1219.967308	-85.870262	231.860331	1364.883451	-213.802565	236.027979	1348.959203	-302.731926	327.500152	1165.578659	-21.187597	269.371456	1132.569620	-443.659754	443.959428	1078.728414	-17.337857	527.441256	1047.418562	-27.172358	581.774766	979.406942	-34.110189	545.823665	1075.442684	-40.114297	662.187854	910.266789	-49.735828	664.320076	889.731962	-184.118177	548.295487	803.327652	-43.500873	494.830672	735.035082	-66.059567	416.286642	700.160393	-70.349549	515.053197	718.123406	-94.704832	296.746693	624.425189	-86.823635	239.694546	660.176922	-136.352484	410.740542	428.933836	-134.094712	342.855626	461.139965	-65.214715	301.543394	998.271920	-452.371089	330.419960	918.793360	-439.187150	366.045178	921.686410	-430.243939	314.303708	830.329152	-431.611614	320.711869	688.313870	-405.488491	317.009323	678.391331	-275.390154	152.548256	290.936847	-404.863465	88.204754	283.126714	-376.003084	248.230313	148.747938	-443.352321	266.552743	574.539979	-431.992595	258.485696	489.631366	-420.037166	209.384216	416.385516	-420.361466	288.033321	481.539789	-397.008648	343.042229	126.208701	-373.308895	-204.394915	954.634451	-262.771598	1.336790	82.503067	-460.958648	-15.171055	81.182753	-62.538625	
754	3.7700	796.843169	1315.730569	-8.173316	820.050238	1326.918706	-350.976054	792.895062	1412.818611	-179.572819	752.107642	1229.305819	-184.018628	595.788216	1120.341988	96.420542	764.116267	963.737789	-27.141517	601.930410	1179.330554	-548.729119	780.302355	952.398761	-457.703964	175.391655	1298.308087	-261.257171	407.716310	1247.540897	-438.395850	374.337401	1283.511354	-39.746134	417.102496	1176.868179	-400.221170	387.274361	1222.476472	-85.710303	232.036816	1366.908816	-215.212414	236.594733	1351.018837	-304.137616	327.316170	1168.775043	-21.210986	270.042292	1133.793466	-443.699485	444.167608	1082.022360	-17.509689	527.327670	1051.349362	-27.011699	582.005122	983.392416	-33.902978	546.015219	1079.332315	-40.444710	664.207092	915.662283	-50.765529	666.435435	895.476037	-185.467843	552.781292	806.213003	-43.861222	500.834844	736.701756	-65.982772	422.813332	700.453855	-70.215937	521.079000	720.430068	-94.976878	302.542930	621.806926	-86.321066	244.233845	655.831968	-135.825718	422.112825	429.521419	-133.557874	353.279204	459.820420	-64.783576	302.029515	1000.112502	-452.323192	330.709170	920.560925	-439.269201	366.286995	923.412121	-430.211282	314.410984	832.165666	-432.153927	319.601398	689.978991	-407.051821	317.631056	679.279060	-276.989041	144.989561	295.432443	-405.441149	80.708621	288.559519	-376.210524	238.101300	151.267825	-443.677543	264.045513	576.966357	-433.287245	254.495004	492.284166	-421.259168	204.051717	419.892364	-421.343774	284.020775	483.699371	-398.434552	332.564472	127.232084	-373.747377	-204.409257	954.659719	-262.643155	1.387990	82.446668	-460.995823	-15.179353	81.213550	-62.533976	
755	3.7750	796.449036	1314.946531	-6.653556	819.822508	1326.401187	-347.818987	792.861525	1412.052594	-177.860236	751.752967	1228.631570	-182.484411	595.342456	1119.482760	96.539271	764.438653	964.439596	-26.375826	603.569399	1179.404606	-547.664327	781.327895	952.556217	-456.649289	176.295256	1300.275222	-262.594506	409.261347	1247.793080	-437.432623	372.511924	1285.659124	-38.922864	417.904568	1176.936846	-399.556522	386.443486	1225.120051	-85.137395	232.178190	1369.117407	-216.015002	237.252163	1353.451010	-305.379882	327.105215	1171.839998	-21.181868	270.576026	1135.188477	-443.684576	444.240216	1085.266681	-17.479740	527.107434	1054.863325	-26.976017	580.623190	987.013909	-33.274305	545.969701	1083.022524	-40.787117	665.246332	920.698829	-51.566341	667.932992	900.764993	-187.138904	556.312009	807.800037	-44.350486	505.608102	737.318395	-66.072645	428.178484	699.597254	-69.874217	526.756495	721.408192	-95.224322	308.004249	618.235569	-85.798780	248.524751	650.462197	-135.168136	433.280308	429.846177	-133.393286	363.549145	457.915127	-64.390262	302.754249	1001.997128	-452.216993	331.595978	922.581534	-439.419348	367.105835	925.489743	-430.170478	315.919289	834.111526	-432.740895	319.759875	691.863684	-408.802507	319.368432	680.144323	-278.730658	137.836708	300.563443	-406.144110	73.607295	294.836991	-376.650018	228.180185	154.437803	-444.107340	262.598071	579.694628	-434.676134	251.395408	495.103178	-422.601568	199.464883	423.847849	-422.375383	280.814740	486.072012	-399.876564	322.238316	128.780436	-374.162770	-204.431575	954.708498	-262.546149	1.386001	82.487426	-461.011459	-15.188589	81.239339	-62.534162	
